<svg width="35" height="34" viewBox="0 0 35 34" fill="none" xmlns="http://www.w3.org/2000/svg">
<path fill-rule="evenodd" clip-rule="evenodd" d="M16.4547 0.0545654C12.0787 0.066569 7.88663 1.81646 4.80078 4.91929C1.71493 8.02212 -0.0119424 12.2237 6.21724e-05 16.5998C0.0053999 18.5455 0.354328 20.4549 1.013 22.2469L3.92411 22.0265L12.5056 20.3682C12.6588 21.1609 12.5632 21.9928 12.2249 22.8109C11.8865 23.6291 11.3129 24.4157 10.5402 25.121C9.76762 25.8262 8.81289 26.4347 7.73664 26.9077C6.71383 27.3572 5.60247 27.6752 4.46649 27.8437C4.59666 27.9824 4.72944 28.1191 4.86479 28.2537C7.96761 31.3396 12.1692 33.0664 16.5453 33.0544L16.5 16.5545L16.4547 0.0545654ZM10.0162 12.4586C9.89758 11.5861 9.43718 10.7965 8.73634 10.2635C8.0355 9.73043 7.15161 9.49764 6.27913 9.61629C5.40664 9.73495 4.61703 10.1953 4.08399 10.8962C3.55096 11.597 3.31816 12.4809 3.43682 13.3534L4.74465 13.1755C4.67316 12.6499 4.81341 12.1174 5.13454 11.6952C5.45566 11.273 5.93136 10.9956 6.45699 10.9241C6.98262 10.8526 7.51511 10.9929 7.93733 11.314C8.35956 11.6351 8.63692 12.1108 8.7084 12.6365L10.0162 12.4586Z" fill="white"/>
<path fill-rule="evenodd" clip-rule="evenodd" d="M18.4336 33C22.8097 33.0028 27.0076 31.2671 30.1039 28.1747C31.4835 26.797 32.594 25.2002 33.4016 23.466C33.0255 23.4095 32.6293 23.38 32.2535 23.3781C31.4842 23.3741 30.6914 23.4138 29.9667 23.672C29.9363 23.6828 29.9061 23.694 29.8761 23.7057C28.8789 24.0925 28.0069 24.7764 27.1633 25.4381L27.079 25.5042C26.5612 25.9101 26.0811 26.35 25.8108 26.6455C25.2033 27.3097 24.1568 26.9275 24.3684 26.0527C24.5688 25.224 24.9696 24.4295 25.6723 23.7917C27.0286 22.5608 28.9594 21.7444 31.0398 21.5219C32.0921 21.4093 33.1391 21.4534 34.1222 21.6431C34.6607 20.0014 34.943 18.2706 34.9442 16.5106C34.947 12.1345 33.2113 7.93654 30.1189 4.84021C27.0265 1.74388 22.8308 0.00280304 18.4547 0L18.4442 16.5L18.4336 33ZM28.6849 15.6472C30.5185 15.6484 32.0058 14.1629 32.007 12.3293C32.0082 10.4957 30.5227 9.00837 28.6891 9.00719C26.8556 9.00602 25.3682 10.4915 25.367 12.3251C25.3658 14.1587 26.8513 15.646 28.6849 15.6472Z" fill="white"/>
</svg>
