<svg width="886" height="705" viewBox="0 0 886 705" fill="none" xmlns="http://www.w3.org/2000/svg">
<g filter="url(#filter0_f_301_36)">
<path d="M730.833 359.814C755.827 295.64 985.223 49.4579 178.184 230.327C132.044 260.23 196.742 374.71 20.4315 401.951C-160.948 429.975 -551.749 606.094 -564.819 731.468C-577.89 856.842 -230.418 818.492 -111.37 814.516C7.67811 810.541 414.003 533.836 543.939 476.65C673.874 419.465 705.84 423.987 730.833 359.814Z" fill="#490DFF" stroke="black"/>
<path d="M-69.0055 473.948C-74.5232 335.971 99.4424 429.769 181.636 386.331C236.399 391.208 358.584 405.253 409.215 422.413C472.505 443.863 497.282 445.703 526.6 475.97C555.917 506.238 440.741 591.146 323.3 623.391C205.86 655.636 203.513 634.384 39.5797 652.598C-124.354 670.811 -109.458 672.011 -214.322 641.302C-319.185 610.594 -63.4877 611.924 -69.0055 473.948Z" fill="#0077FF"/>
<path d="M487.713 414.891C370.399 434.623 276.447 293.873 217.826 310.228L30.7829 478.782C12.7533 489.174 -318.637 612.489 -278.139 649.046C-227.516 694.742 -13.9612 617.423 242.688 613.198C499.337 608.973 936.27 339.443 487.713 414.891Z" fill="#D900FF"/>
<path d="M220.768 457.817C250.481 482.698 339.56 412.086 383.791 421.045C428.022 430.004 351.806 481.541 367.089 493.076C382.372 504.612 416.532 514.559 398.535 525.812C380.538 537.066 357.234 540.008 312.517 531.721C267.8 523.433 140.279 628.824 123.782 622.365C112.157 617.814 12.0334 600.536 -42.8936 592.172C-56.2701 593.424 -68.4789 592.377 -78.296 587.945C-80.9954 586.727 -65.9139 588.667 -42.8936 592.172C18.0624 586.466 103.266 533.005 96.8824 534.385C89.6927 523.687 79.7401 500.936 97.4476 495.522C115.155 490.108 134.006 481.646 141.217 478.092C178.26 458.899 105.509 361.299 220.768 457.817Z" fill="#D9D9D9"/>
</g>
<defs>
<filter id="filter0_f_301_36" x="-765" y="-100" width="1750.22" height="1195.85" filterUnits="userSpaceOnUse" color-interpolation-filters="sRGB">
<feFlood flood-opacity="0" result="BackgroundImageFix"/>
<feBlend mode="normal" in="SourceGraphic" in2="BackgroundImageFix" result="shape"/>
<feGaussianBlur stdDeviation="50" result="effect1_foregroundBlur_301_36"/>
</filter>
</defs>
</svg>
