<svg width="868" height="957" viewBox="0 0 868 957" fill="none" xmlns="http://www.w3.org/2000/svg">
<g filter="url(#filter0_f_301_29)">
<path d="M748.417 537.14C726.541 554.475 674.867 586.389 643.179 575.369C603.568 561.594 573.72 634.232 549.11 609.54C524.501 584.847 502.282 644.597 477.089 635.702C451.897 626.807 432.531 538.687 416.565 546.947C403.792 553.556 379.08 478.261 372.418 485.876L337.739 511.325L296.291 526.381L304.679 626.418C301.324 646.618 276.226 646.78 259.642 646.75C255.192 652.982 244.305 664.481 222.294 684.509C142.265 757.329 -72.9197 819.911 -98.7136 801.117C-124.508 782.323 -118.987 748.8 -147.55 751.866C-268.29 764.828 -79.9822 663.065 -99.6071 626.445C-119.232 589.824 -110.312 596.974 -125.229 555.91C-140.147 514.845 -124.093 506.826 -132.463 432.485C-140.834 358.144 -215.224 359.464 -107.339 320.274L66.9807 256.951C93.555 247.298 186.372 223.79 229.459 213.242C231.413 210.071 246.632 203.723 291.875 203.694C348.43 203.657 371.574 207.828 422.631 210.062C473.689 212.296 523.662 194.143 553.958 208.84C584.253 223.538 634.345 223.115 643.471 248.237C652.597 273.359 668.458 257.48 684.748 284.921C701.039 312.362 698.134 364.823 737.572 430.339C766.003 508.604 756.648 534.15 748.417 537.14Z" fill="#400BDE"/>
<path d="M208.443 638.135C222.259 633.116 317.823 636.956 368.192 629.049C403.094 623.571 447.261 580.373 472.29 551.031L541.17 450.278C532.045 425.156 554.18 399.069 548.476 383.367L535.226 346.892L590.164 110.65L461.434 195.966L426.755 221.415L340.918 252.596C263.989 267.69 106.663 302.254 92.7917 319.761C78.92 337.269 59.3793 337.094 51.3429 334.818C24.9928 357.241 -33.8559 410.993 -58.4508 446.614C-83.0457 482.235 -116.333 571.545 -129.903 611.747L-56.4739 641.674C-21.1883 646.903 56.8137 658.763 86.5363 664.372C123.689 671.383 112.313 657.469 166.994 653.191C221.676 648.914 194.627 643.154 208.443 638.135Z" fill="#0872FF"/>
<path d="M369.084 476.697L399.656 465.591C422.615 451.236 511.156 407.042 681.655 345.107L720.458 331.011L731.628 326.954L752.197 306.63C763.195 288.052 762.996 241.459 674.215 203.71C596.609 231.901 646.565 188.052 605.116 203.108C571.957 215.153 564.033 179.478 562.172 180.154L496.183 291.624C477.137 290.795 435.693 290.355 422.288 295.224C408.884 300.094 392.083 321.691 385.359 331.881L235.989 481.295L180.948 545.039L95.8164 612.056C90.7926 624.181 77.3938 649.646 63.9891 654.516C50.5844 659.385 21.8351 693.891 9.13613 710.535L-37.8634 779.013L-24.6135 815.488L17.8484 846.274L21.9553 831.931C34.002 818.987 59.7794 790.957 66.5151 782.385C74.9348 771.67 104.7 714.374 143.003 682.414C152.722 674.727 164.811 659.089 169.64 652.231L202.446 604.22L231.333 562.829L319.267 597.877C339.745 585.243 358.031 480.712 369.084 476.697Z" fill="#C409FF"/>
<path d="M437.447 299.278C472.993 289.526 498.448 288.708 469.286 386.926C465.474 391.916 461.997 395.745 458.844 398.627C455.569 401.62 452.642 403.591 450.05 404.779L408.225 434.042L347.287 456.178L318.287 508.001L232.935 523.693C244.41 608.99 130.764 493.776 183.795 449.366C236.826 404.957 142.67 456.052 114.714 474.461L60.2383 462.817L126.18 402.514L137.711 380.552L184.758 391.069L262.04 353.162L292.509 342.094C328.973 331.072 409.011 307.079 437.447 299.278Z" fill="#D9D9D9"/>
</g>
<defs>
<filter id="filter0_f_301_29" x="-298.246" y="0.650208" width="1165.39" height="955.624" filterUnits="userSpaceOnUse" color-interpolation-filters="sRGB">
<feFlood flood-opacity="0" result="BackgroundImageFix"/>
<feBlend mode="normal" in="SourceGraphic" in2="BackgroundImageFix" result="shape"/>
<feGaussianBlur stdDeviation="55" result="effect1_foregroundBlur_301_29"/>
</filter>
</defs>
</svg>
