<svg width="1440" height="824" viewBox="0 0 1440 824" fill="none" xmlns="http://www.w3.org/2000/svg">
<g clip-path="url(#clip0_143_65)" filter="url(#filter0_f_143_65)">
<path d="M1354.1 467.901C1383.22 410.676 1582.07 232.473 1019.24 165.786C983.156 181.776 1119.85 -33.3052 598.094 374.222C493.048 456.271 229.494 59.2367 195.944 182.102C162.394 304.968 142.275 633.552 220.768 666.372C299.261 699.192 726.123 713.209 822.34 695.537C918.558 677.865 1324.98 525.126 1354.1 467.901Z" fill="#490DFF" stroke="black"/>
<path d="M1434.6 389.009C1463.72 331.784 976.917 261.12 766.459 210.349C730.377 226.339 1134.69 39.4572 706.174 107.018C551.39 131.422 229.398 -17.6923 195.849 105.173C162.299 228.039 157.842 713.95 231.328 667.868C632.885 416.056 726.123 713.209 822.34 695.537C918.558 677.865 1405.48 446.234 1434.6 389.009Z" fill="#490DFF" stroke="black"/>
<path d="M76 520.619C262.358 0.211334 653.514 279.831 715.829 261.299C750.598 283.185 1336.62 165.016 1366.25 198.057C1403.27 239.357 1384.64 277.638 1431.86 461.64C1446.14 517.269 1261.7 670.325 1178.62 666.619C1095.53 662.912 835.714 670.802 725.083 638.503C614.453 606.203 506.981 533.512 444.667 469.973C382.352 406.433 28.4111 653.512 76 520.619Z" fill="#253ECF"/>
<path d="M1309.86 588.979C1234.05 555.258 1247.35 183.353 785.626 276.152L640.657 281.043C-612.131 -212.931 355.238 304.145 374.375 353.683C398.296 415.606 740.575 605.605 920.43 617.471C1658.53 666.167 1649.5 740.069 1309.86 588.979Z" fill="#D900FF"/>
<path d="M1048.58 394.034C1021.5 371.276 751.988 495.402 737.56 461.02C681.593 327.647 709.6 448.959 681.593 456.923C676.177 458.289 542.578 392.746 529.941 392.746C517.303 392.746 381.091 403.412 383.648 416.467C407.57 446.105 547.092 541.996 516.4 500.185C511.258 493.18 631.945 585.925 641.423 597.568C650.901 609.212 755.163 541.996 782.695 564.225C810.227 586.454 937.958 639.379 951.95 633.558C965.942 627.736 1177.15 515.337 1193.01 517.351C1368.14 539.579 1075.66 416.792 1048.58 394.034Z" fill="#D9D9D9"/>
</g>
<defs>
<filter id="filter0_f_143_65" x="-120" y="-120" width="1680" height="1047" filterUnits="userSpaceOnUse" color-interpolation-filters="sRGB">
<feFlood flood-opacity="0" result="BackgroundImageFix"/>
<feBlend mode="normal" in="SourceGraphic" in2="BackgroundImageFix" result="shape"/>
<feGaussianBlur stdDeviation="60" result="effect1_foregroundBlur_143_65"/>
</filter>
<clipPath id="clip0_143_65">
<rect width="1440" height="807" fill="white"/>
</clipPath>
</defs>
</svg>
