<svg width="1007" height="940" viewBox="0 0 1007 940" fill="none" xmlns="http://www.w3.org/2000/svg">
<g filter="url(#filter0_f_301_28)">
<path d="M1274.9 275.945C1282.37 224.337 1397.27 25.4983 900.391 175.7C874.629 199.97 925.787 -3.60541 606.25 474.734C541.917 571.039 199.29 377.081 207.798 477.676C216.307 578.27 298.029 822.761 374.394 818.806C450.759 814.852 816.611 674.523 892.815 627.84C969.019 581.158 1267.43 327.553 1274.9 275.945Z" fill="#490DFF" stroke="black"/>
<path d="M1274.9 275.945C1282.37 224.337 1397.27 25.4982 900.391 175.7C874.629 199.97 925.787 -3.60553 606.25 474.734C541.917 571.039 199.29 377.081 207.798 477.676C216.307 578.27 298.029 822.761 374.394 818.806C450.759 814.852 816.611 674.523 892.815 627.84C969.019 581.158 1267.43 327.553 1274.9 275.945Z" fill="#490DFF" stroke="black"/>
<path d="M212.183 496.017C213.639 54.3417 668.33 466.583 715.552 431.23C751.588 434.787 832.415 445.259 867.443 458.689C911.227 475.477 1176.11 359.099 1325.88 345.733C1659.11 315.994 1267.62 529.993 1196.12 556.6C1124.62 583.208 767.562 676.128 664.126 691.787C560.691 707.445 212.831 655.062 140.94 631.119C69.0476 607.177 211.812 608.805 212.183 496.017Z" fill="#0077FF"/>
<path d="M1097.56 365.709C1025.01 382.157 1144.73 57.5051 781.445 287.297L613.092 392.625C27.8153 412.288 434.727 567.043 465.831 596.088C504.71 632.396 746.998 587.476 907.665 548.632C1381.27 434.131 1377.12 302.333 1097.56 365.709Z" fill="#D900FF"/>
<path d="M750.496 488.287C773.054 508.042 821.05 450.859 850.834 457.757C880.618 464.654 1165.31 450.278 1010.26 495.944C996.218 500.081 994.095 528.239 983.991 537.377C973.887 546.515 849.764 553.299 819.757 546.943C789.75 540.587 721.623 625.899 710.093 620.827C702.711 617.58 646.712 606.381 609.074 599.597C597.435 600.928 585.287 599.757 574.901 594.536C572.577 593.367 587.927 595.785 609.074 599.597C640.658 595.986 668.491 573.955 647.172 564.469C641.081 555.938 543.371 516.594 554.078 512.14C564.785 507.685 697.671 507.949 701.849 505.054C723.183 489.428 662.991 411.653 750.496 488.287Z" fill="#D9D9D9"/>
</g>
<defs>
<filter id="filter0_f_301_28" x="0.706055" y="0.088089" width="1577.72" height="939.266" filterUnits="userSpaceOnUse" color-interpolation-filters="sRGB">
<feFlood flood-opacity="0" result="BackgroundImageFix"/>
<feBlend mode="normal" in="SourceGraphic" in2="BackgroundImageFix" result="shape"/>
<feGaussianBlur stdDeviation="60" result="effect1_foregroundBlur_301_28"/>
</filter>
</defs>
</svg>
