<svg width="98" height="47" viewBox="0 0 98 47" fill="none" xmlns="http://www.w3.org/2000/svg">
<path d="M89.5128 0.145366C94.1336 -0.146415 98.1298 3.53413 97.1458 8.05782C95.578 15.2658 91.9106 22.1951 86.4087 28.1931C78.7792 36.5104 68.0993 42.5165 56.2074 45.1775C44.3155 47.8385 31.9557 46.9879 21.2556 42.7722C13.5864 39.7506 7.11373 35.1357 2.36829 29.3913C-0.629687 25.7622 1.34585 20.5858 5.71972 18.8479C9.58648 17.3114 13.9181 19.0879 16.7147 22.1697C19.893 25.6722 24.0427 28.4996 28.8835 30.4068C36.2649 33.315 44.7914 33.9018 52.9951 32.0661C61.1988 30.2304 68.5664 26.087 73.8296 20.3493C77.1729 16.7046 79.5342 12.5615 80.7886 8.22753C81.9874 4.08598 85.2093 0.417111 89.5128 0.145366Z" fill="white"/>
</svg>
